<?xml version="1.0" encoding="UTF-8"?>
<svg id="Ebene_1" data-name="Ebene 1" xmlns="http://www.w3.org/2000/svg" xmlns:xlink="http://www.w3.org/1999/xlink" viewBox="0 0 1023.4 731.28">
  <defs>
    <style>
      .cls-1 {
        fill: none;
      }

      .cls-2 {
        fill: #0000c0;
      }

      .cls-3 {
        fill: #ff7800;
      }

      .cls-4 {
        clip-path: url(#clippath);
      }
    </style>
    <clipPath id="clippath">
      <rect class="cls-1" x="634.1" y="195.59" width="252.8" height="340.11"/>
    </clipPath>
  </defs>
  <g>
    <path class="cls-2" d="M258.2,297.71c8.56,4.81,15.25,11.89,20.06,21.23,4.8,9.35,7.21,20.58,7.21,33.69v85.2h-36.7v-80.22c0-11.53-2.88-20.4-8.65-26.61-5.77-6.2-13.63-9.31-23.59-9.31s-18.13,3.1-23.99,9.31c-5.86,6.21-8.78,15.07-8.78,26.61v80.22h-36.7v-193.99h36.7v66.85c4.72-6.29,11.01-11.23,18.88-14.81,7.86-3.58,16.6-5.37,26.22-5.37,11.01,0,20.8,2.4,29.36,7.21Z"/>
    <path class="cls-2" d="M376.56,296.8c8.3-4.37,17.78-6.55,28.44-6.55,12.41,0,23.63,3.06,33.69,9.18,10.05,6.12,18,14.81,23.86,26.08,5.85,11.27,8.78,24.34,8.78,39.19s-2.93,28.01-8.78,39.45c-5.86,11.45-13.81,20.32-23.86,26.61-10.05,6.29-21.28,9.44-33.69,9.44-10.84,0-20.32-2.14-28.44-6.42-8.13-4.28-14.64-9.83-19.53-16.65v20.71h-36.7v-193.99h36.7v69.99c4.72-6.99,11.23-12.67,19.53-17.04ZM428.47,342.02c-3.58-6.38-8.3-11.23-14.16-14.55-5.86-3.32-12.19-4.98-19.01-4.98s-12.89,1.7-18.74,5.11c-5.86,3.41-10.58,8.35-14.16,14.81-3.58,6.47-5.38,14.07-5.38,22.81s1.79,16.34,5.38,22.81c3.58,6.47,8.3,11.4,14.16,14.81,5.85,3.41,12.1,5.11,18.74,5.11s13.15-1.74,19.01-5.24c5.85-3.49,10.57-8.47,14.16-14.94,3.58-6.46,5.37-14.16,5.37-23.07s-1.79-16.29-5.37-22.68Z"/>
    <path class="cls-2" d="M531.62,407.69h64.75v30.15h-106.43v-29.62l63.44-85.46h-63.18v-30.15h105.38v29.62l-63.96,85.46Z"/>
  </g>
  <g class="cls-4">
    <g>
      <path class="cls-2" d="M634.1,778.43c-133.84,0-242.73-108.89-242.73-242.73s108.89-242.73,242.73-242.73,242.73,108.89,242.73,242.73-108.89,242.73-242.73,242.73ZM634.1,324.95c-116.21,0-210.75,94.54-210.75,210.75s94.54,210.75,210.75,210.75,210.75-94.54,210.75-210.75-94.54-210.75-210.75-210.75Z"/>
      <path class="cls-2" d="M634.1,721.74c-102.59,0-186.05-83.46-186.05-186.05s83.46-186.05,186.05-186.05,186.05,83.46,186.05,186.05-83.46,186.05-186.05,186.05ZM634.1,381.63c-84.95,0-154.06,69.11-154.06,154.06s69.11,154.06,154.06,154.06,154.06-69.11,154.06-154.06-69.11-154.06-154.06-154.06Z"/>
      <path class="cls-2" d="M634.1,665.06c-71.33,0-129.36-58.03-129.36-129.36s58.03-129.36,129.36-129.36,129.36,58.03,129.36,129.36-58.03,129.36-129.36,129.36ZM634.1,438.32c-53.69,0-97.38,43.68-97.38,97.38s43.69,97.38,97.38,97.38,97.38-43.69,97.38-97.38-43.68-97.38-97.38-97.38Z"/>
    </g>
    <g>
      <path class="cls-3" d="M634.1,438.32c-133.84,0-242.73-108.89-242.73-242.73s108.89-242.73,242.73-242.73,242.73,108.89,242.73,242.73-108.89,242.73-242.73,242.73ZM634.1-15.16c-116.21,0-210.75,94.54-210.75,210.75s94.54,210.75,210.75,210.75,210.75-94.54,210.75-210.75S750.31-15.16,634.1-15.16Z"/>
      <path class="cls-3" d="M634.1,381.63c-102.59,0-186.05-83.46-186.05-186.05S531.51,9.54,634.1,9.54s186.05,83.46,186.05,186.05-83.46,186.05-186.05,186.05ZM634.1,41.52c-84.95,0-154.06,69.11-154.06,154.06s69.11,154.06,154.06,154.06,154.06-69.11,154.06-154.06-69.11-154.06-154.06-154.06Z"/>
      <path class="cls-3" d="M634.1,324.95c-71.33,0-129.36-58.03-129.36-129.36s58.03-129.36,129.36-129.36,129.36,58.03,129.36,129.36-58.03,129.36-129.36,129.36ZM634.1,98.21c-53.69,0-97.38,43.68-97.38,97.38s43.69,97.38,97.38,97.38,97.38-43.69,97.38-97.38-43.68-97.38-97.38-97.38Z"/>
    </g>
  </g>
</svg>