<?xml version="1.0" encoding="UTF-8" standalone="no"?>
<!-- Created with Inkscape (http://www.inkscape.org/) -->

<svg
   xmlns:dc="http://purl.org/dc/elements/1.1/"
   xmlns:cc="http://creativecommons.org/ns#"
   xmlns:rdf="http://www.w3.org/1999/02/22-rdf-syntax-ns#"
   xmlns:svg="http://www.w3.org/2000/svg"
   xmlns="http://www.w3.org/2000/svg"
   version="1.1"
   width="185.19133"
   height="65.526459"
   id="svg2"
   xml:space="preserve"><title
     id="title3023">hbz Logo</title><metadata
     id="metadata8"><rdf:RDF><cc:Work
         rdf:about=""><dc:format>image/svg+xml</dc:format><dc:type
           rdf:resource="http://purl.org/dc/dcmitype/StillImage" /><dc:title>hbz Logo</dc:title></cc:Work></rdf:RDF></metadata><defs
     id="defs6" /><path
     d="m 185.19132,54.057018 0,-7.596249 -5.64884,0 c -2.40215,0 -5.97348,0 -7.33686,0.0651 l 12.72602,-18.828637 0,-5.908431 -22.59543,0 0,7.40154 5.71322,0 c 3.11686,0 5.64942,-0.06464 6.88296,-0.129731 l -12.98629,19.088327 0,5.908086 23.24523,0 0,0"
     id="path14"
     style="fill:#f18123;fill-opacity:1;fill-rule:nonzero;stroke:none" /><path
     d="m 94.259238,13.023647 0,41.033371 8.311262,0 0,-15.582095 c 0,-5.648625 3.24614,-10.453197 7.46669,-10.453197 3.1163,0 4.02522,2.012893 4.02522,5.388991 l 0,20.646301 8.24634,0 0,-22.658963 c 0,-5.648683 -2.33722,-10.32341 -9.60972,-10.32341 -5.06455,0 -8.76573,2.402142 -10.64849,6.038162 l -0.0649,-0.06486 c 0.45446,-1.883163 0.58488,-4.609919 0.58488,-6.557602 l 0,-13.8940467 c -4.804881,-0.129847 -9.805082,0.064348 -13.96014,0.584303 l 0,5.1938207 c 1.88276,0.129846 4.090135,0.389538 5.648855,0.649228 l 0,0"
     id="path16"
     style="fill:#f18123;fill-opacity:1;fill-rule:nonzero;stroke:none" /><path
     d="m 137.6219,6.5032188 c -4.80486,-0.129845 -9.80391,0.06435 -13.95954,0.5837312 l 0,5.194395 c 1.88275,0.129846 4.09013,0.389537 5.64885,0.649227 l 0,40.125085 c 3.70118,1.039109 7.33685,1.557974 12.01186,1.557974 11.10294,0 17.46595,-7.531155 17.46595,-18.4391 0,-9.544277 -4.15506,-15.128037 -11.88202,-15.128037 -4.54516,0 -8.11649,2.207947 -9.73956,5.71372 l -0.0649,0 c 0.32463,-1.687935 0.51939,-4.350343 0.51939,-6.298025 l 0,-13.9589702 z m 12.40197,30.5151932 c 0,7.986305 -3.37656,10.972983 -8.1165,10.972983 -1.75291,0 -3.11686,-0.194827 -4.28547,-0.58465 l 0,-9.08936 c 0,-5.389222 2.59749,-10.388561 6.88239,-10.388561 3.7661,0 5.51958,3.051542 5.51958,9.089588 l 0,0"
     id="path18"
     style="fill:#f18123;fill-opacity:1;fill-rule:evenodd;stroke:none" /><path
     d="m 50.831997,42.772293 0,-31.131557 -36.928643,0 0,-6.0159847 49.105052,-0.00115 0.0022,37.1486927 -12.178706,0 0,0"
     id="path20"
     style="fill:#004678;fill-opacity:1;fill-rule:nonzero;stroke:none" /><path
     d="m 21.654443,44.499756 43.083896,0 0,-38.8635147 7.427625,0.00115 -0.0011,48.3983117 -50.510371,0 0,-9.535947"
     id="path22"
     style="fill:#004678;fill-opacity:1;fill-rule:nonzero;stroke:none" /><path
     d="m 19.927727,13.367796 4.02e-4,42.394911 43.082575,0 -0.0022,9.763751 -49.105053,0 0,-52.158662 6.024374,0 0,0"
     id="path24"
     style="fill:#004678;fill-opacity:1;fill-rule:nonzero;stroke:none" /><path
     d="m 63.008406,3.8965413 -50.831768,0 0,50.1391617 L 0,54.035703 0,0.00175 63.008406,0 l 0,3.8965151"
     id="path26"
     style="fill:#004678;fill-opacity:1;fill-rule:nonzero;stroke:none" /></svg>