<svg xmlns="http://www.w3.org/2000/svg" version="1.2" width="225.656" height="70.602" viewBox="1545 26421 5970.47 1868" preserveAspectRatio="xMidYMid" fill-rule="evenodd" stroke-width="28.222" stroke-linejoin="round"><g aria-label="to.science" class="TextShape"><path d="M2714.523 27669.933q-4.962 18.603-7.442 39.067-50.23 12.402-92.397 12.402-35.347 0-63.252-8.061-27.285-7.442-44.649-27.285-17.363-20.464-22.944-44.649-5.581-24.804-5.581-52.71v-15.503q.62-10.542 2.48-46.508l20.464-410.518h-76.274q2.48-16.743 3.1-33.486h75.655q3.1-39.068 4.96-116.582 23.565-3.101 40.928-8.062-4.34 100.459-4.34 124.644h186.035q-2.48 16.743-3.101 33.486H2543.37l-20.464 425.4-.62 25.425q0 52.09 11.782 75.654 12.403 23.565 34.107 34.107 22.324 10.542 45.889 10.542 16.743 0 35.346-2.481 19.224-3.1 65.113-14.882zM3098.995 27069.659q57.671 0 111.621 16.123 53.95 16.123 94.878 55.191 41.548 38.447 63.252 101.079 21.704 62.632 21.704 132.705 0 75.654-22.944 145.107-22.945 69.453-65.112 116.582-42.168 46.509-99.22 65.733-56.43 19.223-120.302 19.223-44.648 0-88.057-10.542-42.788-9.922-80.615-34.106-37.207-24.185-65.732-62.632-27.906-38.447-42.788-91.157-14.263-52.71-14.263-109.761 0-99.839 37.207-182.314 37.207-83.096 111.001-122.163 74.414-39.068 159.37-39.068zm-1.24 34.727q-73.794 0-137.046 35.967-63.252 35.966-93.018 109.76-29.765 73.794-29.765 161.851 0 62.012 16.743 116.582 17.363 54.57 55.19 92.397 37.827 37.207 81.236 52.09 44.028 14.263 92.397 14.263 55.19 0 103.56-17.984 48.369-17.983 84.956-60.151 37.207-42.168 54.57-103.559 17.363-61.392 17.363-130.225 0-63.872-17.363-119.683-16.743-56.43-52.71-89.917-35.967-34.106-81.855-47.749-45.889-13.642-94.258-13.642zM3522.535 27709q1.86-25.425 1.86-40.308.62-14.882 1.24-27.285 22.325.62 34.727.62 13.023 0 34.727-.62-1.24 18.604-1.86 35.967-.62 16.743-1.86 31.626-21.705-.62-34.107-.62-13.023 0-34.727.62zM3733.375 27697.218q-1.24-29.766-4.96-52.71 48.988 21.704 92.397 30.386 43.408 8.681 79.374 8.681 47.75 0 81.236-13.642 34.106-13.643 51.47-40.308 17.363-26.665 17.363-55.811 0-13.022-3.1-24.804-2.481-12.403-8.682-24.185-6.202-12.402-14.263-22.324-7.441-10.542-21.704-23.564-13.643-13.023-32.246-29.146-18.604-16.123-58.291-48.989-39.688-32.866-65.733-56.431-25.425-24.184-42.788-48.369-16.743-24.805-24.184-45.269-6.822-20.463-6.822-41.547 0-35.967 22.325-69.454 22.944-34.106 65.112-52.089 42.788-17.984 107.9-17.984 54.57 0 122.783 14.263.62 27.285 3.721 52.71-39.687-16.743-71.313-22.324-31.006-6.202-63.252-6.202-40.308 0-74.414 12.403-34.107 11.782-51.47 35.346-16.743 22.945-16.743 50.23 0 14.883 3.72 27.905 3.721 13.023 11.783 26.665 8.061 13.023 20.464 27.285 13.022 13.643 32.866 32.247 20.464 17.983 58.29 50.229 38.448 31.626 57.052 48.369 18.603 16.123 31.626 29.766 13.642 13.642 25.424 30.386 12.403 16.123 19.844 31.625 7.442 15.503 11.162 31.626 3.721 15.503 3.721 31.626 0 39.068-22.944 73.794-22.945 34.727-66.973 54.571-43.408 19.843-104.8 19.843-22.944 0-57.67-3.72-34.107-3.721-55.191-8.062-20.464-3.72-52.09-13.022zM4662.31 27659.391q-6.2 25.424-8.681 47.129-78.755 15.502-146.968 15.502-64.492 0-120.923-17.983-55.81-17.983-96.118-57.671-40.308-40.307-60.151-100.459-19.224-60.771-19.224-127.124 0-90.537 30.386-172.392 31.006-81.856 97.978-128.985 67.593-47.749 182.315-47.749 83.716 0 159.37 22.945.62 20.463 4.34 43.408-64.491-19.844-101.078-25.425-36.587-6.201-66.973-6.201-65.112 0-115.342 25.425-50.23 24.804-83.716 70.693-32.866 45.889-47.129 102.939-13.642 56.431-13.642 113.482 0 61.391 15.503 114.721 15.503 53.331 49.61 86.817 34.106 33.486 83.715 51.47 49.61 17.363 104.18 17.363 30.386 0 64.492-5.581 34.106-6.201 88.056-22.324zM4838.424 26923.932l1.86-61.392q15.503.62 31.626.62t31.626-.62l-1.86 61.392q-15.503-1.241-31.626-1.241t-31.626 1.241zM4816.1 27709q6.82-93.018 15.502-324.321 9.302-231.304 9.302-301.997 16.123.62 24.805.62 9.302 0 25.425-.62-8.682 117.822-17.364 321.22-8.061 203.399-8.061 305.098-16.123-.62-24.805-.62-8.681 0-24.804.62zM5518.072 27648.849q-4.96 22.944-7.441 46.508-51.47 14.883-92.398 20.464-40.927 6.201-83.715 6.201-74.414 0-132.085-19.843-57.051-20.464-97.979-66.973-40.928-47.129-58.29-105.42-17.364-58.291-17.364-124.023 0-86.197 29.765-161.231 29.766-75.654 97.979-125.263 68.213-49.61 169.292-49.61 69.453 0 125.884 26.045 56.43 25.425 87.436 83.716 31.626 58.291 31.626 138.286 0 14.883-1.24 28.525l-490.513.621q-3.1 40.307-3.1 60.771 0 58.911 17.363 114.102 17.363 55.19 52.09 92.397 35.346 37.207 84.336 55.19 48.989 17.984 103.56 17.984 83.095 0 184.794-38.447zm-433.462-336.104l440.904.62q-.62-42.788-4.961-65.732-4.341-22.945-16.123-47.129-11.783-24.185-28.526-41.548-16.123-17.983-38.447-29.766-21.704-12.402-48.99-18.603-27.284-6.201-57.05-6.201-32.866 0-64.492 7.441-31.626 7.442-57.671 20.464-26.045 13.022-48.99 33.486-22.324 19.844-37.206 43.409-14.263 23.564-22.325 45.268-7.441 21.084-16.123 58.291zM5685.504 27709l21.084-378.892 5.58-177.973q1.241-47.749 1.241-69.453 16.123.62 24.185.62 7.441 0 23.564-.62l-8.061 141.386q13.642-29.145 22.324-44.028 9.302-15.503 24.805-32.866t36.587-32.246q21.704-15.503 51.47-25.425 30.385-10.542 62.01-14.883 31.627-4.961 62.633-4.961 52.09 0 101.079 11.782 48.99 11.783 81.235 40.928 32.246 28.526 44.029 66.353 12.402 37.207 12.402 79.995 0 19.223-1.86 57.051l-13.023 282.153-2.48 101.079q-12.403-.62-24.185-.62-11.782 0-23.564.62 6.2-77.515 9.922-148.208l8.681-158.75q4.961-88.057 4.961-127.124 0-40.928-11.782-73.174-11.782-32.246-40.928-53.33-28.525-21.704-68.213-31.006-39.687-9.922-81.855-9.922-58.911 0-104.18 16.123-42.788 15.503-75.034 45.889-32.246 29.766-52.71 75.654-15.503 33.487-23.565 93.638-7.441 52.09-12.402 170.532-4.34 117.823-4.34 199.678-16.124-.62-24.805-.62-8.682 0-24.805.62zM6845.123 27659.391q-6.201 25.424-8.682 47.129-78.755 15.502-146.967 15.502-64.493 0-120.923-17.983-55.81-17.983-96.118-57.671-40.308-40.307-60.152-100.459-19.223-60.771-19.223-127.124 0-90.537 30.385-172.392 31.006-81.856 97.979-128.985 67.593-47.749 182.314-47.749 83.716 0 159.37 22.945.62 20.463 4.341 43.408-64.492-19.844-101.079-25.425-36.587-6.201-66.973-6.201-65.112 0-115.341 25.425-50.23 24.804-83.716 70.693-32.866 45.889-47.129 102.939-13.643 56.431-13.643 113.482 0 61.391 15.503 114.721 15.503 53.331 49.61 86.817 34.106 33.486 83.716 51.47 49.609 17.363 104.18 17.363 30.385 0 64.491-5.581 34.107-6.201 88.057-22.324zM7462.76 27648.849q-4.961 22.944-7.442 46.508-51.47 14.883-92.397 20.464-40.928 6.201-83.716 6.201-74.414 0-132.085-19.843-57.05-20.464-97.978-66.973-40.928-47.129-58.291-105.42-17.364-58.291-17.364-124.023 0-86.197 29.766-161.231 29.766-75.654 97.978-125.263 68.213-49.61 169.292-49.61 69.454 0 125.884 26.045 56.43 25.425 87.437 83.716 31.626 58.291 31.626 138.286 0 14.883-1.24 28.525l-490.513.621q-3.1 40.307-3.1 60.771 0 58.911 17.362 114.102 17.364 55.19 52.09 92.397 35.347 37.207 84.336 55.19 48.99 17.984 103.56 17.984 83.095 0 184.795-38.447zm-433.462-336.104l440.903.62q-.62-42.788-4.96-65.732-4.342-22.945-16.124-47.129-11.782-24.185-28.525-41.548-16.123-17.983-38.448-29.766-21.704-12.402-48.989-18.603-27.285-6.201-57.05-6.201-32.867 0-64.493 7.441-31.626 7.442-57.67 20.464-26.046 13.022-48.99 33.486-22.324 19.844-37.207 43.409-14.263 23.564-22.324 45.268-7.442 21.084-16.123 58.291z"/></g><g class="com.sun.star.drawing.PolyPolygonShape"><path class="BoundingBox" fill="none" d="M1545 26421h1016v1868H1545z"/><path fill="#2a6099" d="M2542 26422v397h-57l-3-337h-870l461 831-461 916h887l2-335h58v393H1545v-68l457-906-457-828v-63z"/></g></svg>